<?xml version="1.0" encoding="UTF-8"?>
<svg width="800px" height="800px" viewBox="0 0 800 800" version="1.1" xmlns="http://www.w3.org/2000/svg">
    <g stroke="none" stroke-width="1" fill="none" fill-rule="evenodd">
        <g transform="translate(100, 100)" fill="#000000" fill-rule="nonzero">
            <path d="M600,150 L500,150 L450,50 L150,50 C67.157,50 0,117.157 0,200 L0,450 C0,532.843 67.157,600 150,600 L450,600 C532.843,600 600,532.843 600,450 L600,150 Z M300,500 C188.972,500 100,411.028 100,300 C100,188.972 188.972,100 300,100 C411.028,100 500,188.972 500,300 C500,411.028 411.028,500 300,500 Z M300,450 C383.513,450 450,383.513 450,300 C450,216.487 383.513,150 300,150 C216.487,150 150,216.487 150,300 C150,383.513 216.487,450 300,450 Z M550,200 C550,177.909 532.091,160 510,160 C487.909,160 470,177.909 470,200 C470,222.091 487.909,240 510,240 C532.091,240 550,222.091 550,200 Z"></path>
        </g>
    </g>
</svg>
