<?xml version="1.0" encoding="UTF-8"?>
<svg width="800px" height="800px" viewBox="0 0 800 800" version="1.1" xmlns="http://www.w3.org/2000/svg">
    <g stroke="none" stroke-width="1" fill="none" fill-rule="evenodd">
        <g transform="translate(150, 100)" fill="#000000" fill-rule="nonzero">
            <path d="M250,0 C388.071,0 500,111.929 500,250 C500,388.071 388.071,500 250,500 C111.929,500 0,388.071 0,250 C0,111.929 111.929,0 250,0 Z M250,100 C167.157,100 100,167.157 100,250 C100,332.843 167.157,400 250,400 C332.843,400 400,332.843 400,250 C400,167.157 332.843,100 250,100 Z M250,150 C305.228,150 350,194.772 350,250 C350,305.228 305.228,350 250,350 C194.772,350 150,305.228 150,250 C150,194.772 194.772,150 250,150 Z M250,200 C222.386,200 200,222.386 200,250 C200,277.614 222.386,300 250,300 C277.614,300 300,277.614 300,250 C300,222.386 277.614,200 250,200 Z"></path>
            <rect x="225" y="500" width="50" height="100"></rect>
            <rect x="225" y="600" width="150" height="50"></rect>
        </g>
    </g>
</svg>
